<?xml version="1.0" encoding="iso-8859-1"?>
<!-- Uploaded to: SVG Repo, www.svgrepo.com, Generator: SVG Repo Mixer Tools -->
<svg fill="hsl(0, 72%, 42%)" height="70px" width="70px" version="1.1" id="Layer_1" xmlns="http://www.w3.org/2000/svg" xmlns:xlink="http://www.w3.org/1999/xlink" 
	 viewBox="0 0 511.998 511.998" xml:space="preserve">
<g>
	<g>
		<g>
			<path d="M511.096,226.583c-0.444-0.888-11.153-21.786-33.229-21.786c-15.787,0-25.728,10.65-30.293,17.067h-14.66l7.33-12.706
				c7.851-0.725,22.007-3.951,29.926-17.69c11.042-19.123-1.707-38.844-2.253-39.671c-1.459-2.219-3.951-3.635-6.613-3.814
				c0.017,0.009-24.252-1.544-35.473,17.886c-7.893,13.679-3.644,27.605-0.367,34.765l-6.537,11.315
				c-11.486-21.666-36.898-58.351-77.594-58.351c-41.242,0-53.146,20.275-59.341,40.124c-1.417,4.497,1.092,9.284,5.589,10.692
				c4.497,1.391,9.284-1.109,10.692-5.606c5.709-18.253,14.268-28.143,43.059-28.143c32.555,0,54.11,33.075,63.479,51.2h-54.946
				c-4.719,0-8.533,3.823-8.533,8.533c0,46.046-10.462,196.267-145.067,196.267c-3.234,0-6.187,1.826-7.637,4.719l-31.369,62.746
				c-6.852-1.143-19.234-3.635-33.775-8.149l28.348-37.069c2.867-3.738,2.15-9.096-1.596-11.955
				c-3.746-2.876-9.096-2.159-11.964,1.596l-31.727,41.481c-5.854-2.304-11.819-4.855-17.801-7.859
				c-7.646-3.849-14.635-8.013-21.069-12.442l55.339-25.301c4.284-1.963,6.17-7.031,4.207-11.315
				c-1.963-4.275-7.023-6.17-11.307-4.215l-63.3,28.945c-12.331-11.247-21.427-24.021-27.349-38.246h85.666
				c4.71,0,8.533-3.823,8.533-8.533s-3.823-8.533-8.533-8.533H19.849c-1.237-5.513-2.099-11.187-2.5-17.067h178.918
				c3.831,0,7.194-2.56,8.218-6.255c1.024-3.695-0.538-7.62-3.831-9.591c-1.604-0.964-154.155-93.858-165.752-201.719
				l112.666,112.666c1.664,1.664,3.849,2.5,6.033,2.5c2.176,0,4.36-0.836,6.033-2.5c3.328-3.337,3.328-8.73,0-12.066L34.364,133.237
				c0.341-8.772,1.075-17.084,2.065-25.011L156.1,227.898c1.664,1.664,3.849,2.5,6.033,2.5c2.176,0,4.361-0.836,6.033-2.5
				c3.328-3.337,3.328-8.73,0-12.066L39.765,87.43c1.553-7.834,3.328-15.121,5.24-21.828l119.629,119.629
				c1.664,1.664,3.849,2.5,6.033,2.5c2.176,0,4.361-0.836,6.033-2.5c3.328-3.337,3.328-8.73,0-12.066L50.893,47.366
				c3.908-10.709,7.791-19.098,10.743-24.858l102.989,102.989l0.009,0.009l110.933,110.925c3.328,3.336,8.73,3.336,12.066,0
				c3.328-3.337,3.328-8.73,0-12.066L179.405,116.137c1.101-36.028,19.046-53.939,29.619-61.261l47.582,118.963
				c1.34,3.328,4.54,5.359,7.927,5.359c1.058,0,2.133-0.196,3.166-0.606c4.369-1.758,6.502-6.716,4.753-11.102l-51.2-128
				c-1.749-4.361-6.699-6.477-11.093-4.753c-1.749,0.708-38.63,16.196-46.481,65.673L65.766,2.498
				c-1.809-1.809-4.318-2.705-6.878-2.458c-2.543,0.247-4.838,1.63-6.255,3.755C51.174,5.98,17.067,58.144,17.067,145.064
				c0,96.179,102.707,179.576,150.775,213.333H8.533c-4.719,0-8.533,3.823-8.533,8.533c0,13.474,1.92,25.651,5.197,36.787
				c0.094,0.282,0.137,0.572,0.256,0.845c7.407,24.491,21.751,43.588,38.946,58.359c0.845,1.135,1.92,1.997,3.157,2.586
				c17.954,14.618,38.519,24.832,57.216,31.863c1.075,0.708,2.253,1.109,3.465,1.28c28.851,10.385,52.335,13.227,52.949,13.295
				c0.316,0.034,0.631,0.051,0.947,0.051c3.208,0,6.17-1.8,7.629-4.719l31.812-63.616c137.873-3.61,155.281-147.661,156.715-204.732
				h54.912l11.127,19.277c-3.627,5.555-11.767,20.864-4.147,37.163c9.318,20.002,32.768,20.881,33.758,20.907h0.239
				c2.603,0,5.069-1.186,6.682-3.226c0.623-0.777,15.036-19.311,5.717-39.322c-5.76-12.382-16.905-17.434-24.832-19.499l-8.832-15.3
				h14.66c4.565,6.417,14.507,17.067,30.293,17.067c22.076,0,32.785-20.898,33.229-21.786
				C512.299,231.814,512.299,228.981,511.096,226.583z M440.61,174.402c3.593-6.221,10.377-8.329,15.095-9.037
				c1.698,4.318,3.311,11.29-0.316,17.57c-3.627,6.272-10.505,8.371-15.087,9.062C438.613,187.663,437.001,180.666,440.61,174.402z
				 M436.873,270.581c4.506,1.075,11.162,3.763,14.242,10.351c3.046,6.554,0.828,13.38-1.254,17.553
				c-4.514-1.092-11.162-3.78-14.217-10.334C432.572,281.581,434.807,274.737,436.873,270.581z M477.867,238.931
				c-7.245,0-12.493-4.907-15.386-8.533c2.901-3.635,8.149-8.533,15.386-8.533s12.484,4.907,15.377,8.533
				C490.342,234.033,485.094,238.931,477.867,238.931z"/>
			<path d="M350.123,204.798c4.71,0,8.533-3.823,8.533-8.533s-3.823-8.533-8.533-8.533h-0.094c-4.71,0-8.482,3.823-8.482,8.533
				S345.404,204.798,350.123,204.798z"/>
		</g>
	</g>
</g>
</svg>