<!DOCTYPE svg PUBLIC "-//W3C//DTD SVG 1.1//EN" "http://www.w3.org/Graphics/SVG/1.1/DTD/svg11.dtd">

<!-- Uploaded to: SVG Repo, www.svgrepo.com, Transformed by: SVG Repo Mixer Tools -->
<svg fill="#f5f5f5" version="1.1" id="Layer_1" xmlns="http://www.w3.org/2000/svg" xmlns:xlink="http://www.w3.org/1999/xlink" viewBox="0 0 512 512" xml:space="preserve" width="20px" height="20px">

<g id="SVGRepo_bgCarrier" stroke-width="0"/>

<g id="SVGRepo_tracerCarrier" stroke-linecap="round" stroke-linejoin="round"/>

<g id="SVGRepo_iconCarrier"> <g> <g> <path d="M428.651,305.088V180.532c0-19.145-5.973-37.434-17.271-52.89L334.256,22.136l-0.342-0.452 c-18.183-23.284-51.922-27.437-75.208-9.255c-0.937,0.731-1.831,1.498-2.705,2.277c-0.878-0.781-1.772-1.547-2.705-2.275 c-11.251-8.785-25.287-12.656-39.518-10.907c-14.232,1.753-26.909,8.911-35.692,20.162l-77.467,105.957 c-11.297,15.456-17.27,33.746-17.27,52.891v124.555l-74.97,74.97l130.842,130.842l75.775-75.776l-0.144-0.143l27.972-23.977 c4.933-4.228,9.34-8.937,13.175-14.03c3.835,5.091,8.242,9.802,13.175,14.03l27.971,23.977l-0.143,0.143l75.776,75.776 L503.62,380.057L428.651,305.088z M139.22,460.383l-80.324-80.326l25.258-25.259l80.324,80.326L139.22,460.383z M238.14,343.526 c0,15.537-6.766,30.246-18.562,40.357l-30.059,25.764l-70.449-70.451V180.532c0-11.515,3.592-22.514,10.386-31.809l76.93-105.239 c2.905-3.623,7.072-5.931,11.756-6.508c4.76-0.587,9.439,0.694,13.169,3.607c3.729,2.911,6.106,7.138,6.692,11.9 c0.587,4.763-0.694,9.44-3.607,13.169l-67.698,93.444V295.22h35.721v-85.73c0-9.848,8.012-17.86,17.86-17.86 s17.86,8.012,17.86,17.86V343.526z M256,169.596c-9.487-8.504-22.008-13.687-35.721-13.687c-2.567,0-5.088,0.193-7.56,0.544 L256,96.699l43.281,59.753c-2.471-0.35-4.993-0.543-7.56-0.543C278.008,155.909,265.487,161.094,256,169.596z M292.423,383.883 c-11.797-10.111-18.563-24.82-18.563-40.356V209.489c0-9.848,8.012-17.86,17.86-17.86s17.86,8.012,17.86,17.86v85.73h35.721 V159.096l-67.31-92.929l-0.387-0.516c-6.062-7.763-4.677-19.008,3.085-25.069c7.701-6.014,18.828-4.697,24.925,2.902 l76.929,105.239c6.795,9.296,10.388,20.294,10.388,31.809v158.665l-70.45,70.45L292.423,383.883z M347.519,435.123l80.326-80.326 l25.259,25.259l-80.326,80.326L347.519,435.123z"/> </g> </g> <g> <g> <rect y="116.224" width="59.535" height="35.721"/> </g> </g> <g> <g> <rect x="25.87" y="22.943" transform="matrix(0.3333 -0.9428 0.9428 0.3333 -20.5417 76.3708)" width="35.72" height="59.534"/> </g> </g> <g> <g> <rect x="452.465" y="116.224" width="59.535" height="35.721"/> </g> </g> <g> <g> <rect x="438.489" y="34.853" transform="matrix(0.9428 -0.3333 0.3333 0.9428 9.2062 159.0867)" width="59.533" height="35.719"/> </g> </g> </g>

</svg>